# xmcd
#
# Track frame offsets:
# 150
# 12673
# 26133
# 36835
# 49888
# 61858
# 74868
# 89020
# 102865
# 114458
# 126365
# 138205
# 148675
# 161818
# 163843
# 176403
# 190941
# 206723
# 222021
# 234993
#
# Disc length: 3277 seconds
#
# Revision: 0
# Processed by: cddbd v1.5.1PL0 Copyright (c) Steve Scherf et al.
# Submitted via: Audion 3.0.2 (http://www.panic.com/audion/)
#
DISCID=310ccb14
DTITLE=Ray Charles - The Best of Ray Charles: The Atlantic Years
DYEAR=1900
DGENRE=
TTITLE0=It Should've Been Me
TTITLE1=Don't You Know
TTITLE2=Blackjack
TTITLE3=I've Got a Woman
TTITLE4=What Would I Do Without You?
TTITLE5=Greenbacks
TTITLE6=Come Back Baby
TTITLE7=A Fool For You
TTITLE8=This Little Girl Of Mine
TTITLE9=Hallelujah, I Love Her So
TTITLE10=Lonely Avenue
TTITLE11=It's Alright
TTITLE12=Ain't That Love
TTITLE13=Swanee River Rock
TTITLE14=That's Enough
TTITLE15=What'd I Say (part 1)
TTITLE16=(Night Time Is) The Right Time
TTITLE17=Drown In My Own Tears
TTITLE18=Tell The Truth (Live)
TTITLE19=Just For A Thrill
EXTD=
EXTT0=
EXTT1=
EXTT2=
EXTT3=
EXTT4=
EXTT5=
EXTT6=
EXTT7=
EXTT8=
EXTT9=
EXTT10=
EXTT11=
EXTT12=
EXTT13=
EXTT14=
EXTT15=
EXTT16=
EXTT17=
EXTT18=
EXTT19=
PLAYORDER=
